<?xml version="1.0" encoding="UTF-8" standalone="no"?>
<!-- Created with Inkscape (http://www.inkscape.org/) -->

<svg
   version="1.1"
   id="svg1"
   width="1083.9451"
   height="1055.9998"
   viewBox="0 0 1083.9451 1055.9998"
   sodipodi:docname="LOGO_GENTLEMEN.ai"
   xmlns:inkscape="http://www.inkscape.org/namespaces/inkscape"
   xmlns:sodipodi="http://sodipodi.sourceforge.net/DTD/sodipodi-0.dtd"
   xmlns="http://www.w3.org/2000/svg"
   xmlns:svg="http://www.w3.org/2000/svg">
  <defs
     id="defs1" />
  <sodipodi:namedview
     id="namedview1"
     pagecolor="#ffffff"
     bordercolor="#000000"
     borderopacity="0.25"
     inkscape:showpageshadow="2"
     inkscape:pageopacity="0.0"
     inkscape:pagecheckerboard="0"
     inkscape:deskcolor="#d1d1d1">
    <inkscape:page
       x="0"
       y="0"
       inkscape:label="1"
       id="page1"
       width="1083.9451"
       height="1055.9998"
       bleed="18.8976 18.897333 18.897333 18.8976"
       margin="0" />
  </sodipodi:namedview>
  <g
     id="layer-MC0"
     inkscape:groupmode="layer"
     inkscape:label="Layer 2">
    <path
       id="path1"
       d="M 1.174,0 H 841.306 V 820.346 H 1.174 Z"
       style="fill:#100f0d;fill-opacity:1;fill-rule:nonzero;stroke:none"
       transform="matrix(1.3333333,0,0,-1.3333333,-18.8976,1074.8971)" />
  </g>
  <g
     id="layer-MC1"
     inkscape:groupmode="layer"
     inkscape:label="Layer 1">
    <path
       id="path2"
       d="M 0,0 V -2.922 -3.03 H -0.107 -19.24 -19.349 V -2.922 0 c 0,4.656 -1.594,7.505 -3.747,8.731 -0.921,0.525 -1.947,0.753 -2.992,0.698 -1.049,-0.055 -2.119,-0.395 -3.127,-1.004 -2.86,-1.727 -5.224,-5.619 -5.224,-11.347 0,-14.492 22.867,-14.493 26.678,-14.493 v 0 H -0.107 0 v -0.108 -28.394 -28.393 -0.108 h -0.107 -7.654 v -10e-4 h -0.002 c -3.8,0 -26.661,-0.002 -26.661,-14.493 h 10e-4 c 0,-5.728 2.363,-9.62 5.224,-11.347 1.009,-0.609 2.079,-0.949 3.127,-1.004 1.046,-0.055 2.072,0.173 2.993,0.698 2.152,1.226 3.747,4.075 3.747,8.731 v 2.922 0.108 H -19.225 -0.107 0 v -0.108 -2.922 c 0,-9.266 -4.728,-15.285 -10.869,-17.93 -2.451,-1.056 -5.129,-1.573 -7.82,-1.545 -2.692,0.029 -5.398,0.604 -7.907,1.734 -5.838,2.629 -10.607,8.26 -11.654,16.99 v -25.433 h 9.459 0.107 v -0.108 -2.922 -0.108 h -0.107 -38.25 -0.107 v 0.108 2.922 0.108 h 0.107 9.459 v 25.416 c -1.051,-8.721 -5.822,-14.346 -11.659,-16.973 -2.509,-1.13 -5.217,-1.705 -7.909,-1.734 -2.692,-0.028 -5.371,0.49 -7.824,1.545 -6.143,2.645 -10.874,8.664 -10.874,17.93 v 2.922 0.108 h 0.108 19.133 0.108 v -0.108 -2.922 c 0,-4.656 1.595,-7.505 3.746,-8.731 0.921,-0.525 1.948,-0.753 2.993,-0.698 1.049,0.056 2.119,0.395 3.127,1.004 2.861,1.727 5.225,5.619 5.225,11.347 0,7.237 -5.703,10.86 -11.881,12.673 -6.203,1.821 -12.887,1.821 -14.797,1.821 h -7.654 -0.108 v 0.108 28.393 28.394 0.108 h 0.108 7.654 0.002 c 3.799,0 26.659,0.002 26.659,14.493 0,5.728 -2.364,9.62 -5.223,11.347 -1.009,0.609 -2.08,0.949 -3.127,1.004 -1.046,0.055 -2.073,-0.173 -2.994,-0.698 C -74.921,7.505 -76.515,4.656 -76.515,0 V -2.922 -3.03 h -0.108 -19.117 -0.108 V -2.922 0 c 0,9.266 4.729,15.285 10.87,17.93 2.451,1.056 5.128,1.573 7.82,1.545 2.691,-0.029 5.397,-0.604 7.906,-1.734 5.834,-2.627 10.605,-8.252 11.654,-16.972 v 25.415 h -9.459 -0.107 v 0.108 2.922 0.108 h 0.107 38.25 0.108 v -0.108 -2.922 -0.108 h -0.108 -9.459 V 0.748 c 1.046,8.732 5.819,14.364 11.661,16.993 2.508,1.13 5.216,1.705 7.908,1.734 2.692,0.028 5.371,-0.49 7.824,-1.545 C -4.73,15.285 0,9.265 0,0 m -76.503,-74.63 c 2.329,-0.277 4.905,-0.735 7.394,-1.49 5.435,-1.65 10.445,-4.719 11.527,-10.424 v 40.519 h -0.016 v 0.108 40.628 c -1.084,-5.705 -6.091,-8.775 -11.528,-10.425 -2.497,-0.758 -5.085,-1.216 -7.421,-1.494 l 0.032,-0.207 v -0.108 -28.286 h 0.016 v -0.108 -28.393 -0.108 z m 38.238,69.35 v -40.529 h 0.015 v -0.108 -40.634 c 1.1,5.812 6.27,8.889 11.82,10.519 2.396,0.702 4.863,1.136 7.1,1.402 l -0.002,0.212 v 0.108 28.285 h -0.017 v 0.108 28.394 0.108 l -0.014,0.213 c -2.234,0.267 -4.694,0.7 -7.082,1.401 -5.551,1.629 -10.721,4.708 -11.82,10.521"
       style="fill:#ffffff;fill-opacity:1;fill-rule:evenodd;stroke:none"
       transform="matrix(1.3333333,0,0,-1.3333333,516.0912,371.92787)" />
    <path
       id="path3"
       d="M 0,0 21.04,38.081 42.105,0 63.173,38.081 84.213,0 Z m -29.596,-230.292 c 0.122,-0.879 0.184,-1.767 0.229,-2.674 0.413,0.241 0.824,0.481 1.234,0.724 -0.121,3.749 -0.531,7.419 -1.544,10.994 -0.751,2.604 -1.984,5.045 -2.816,7.622 -1.102,3.462 -0.993,7.004 -0.028,10.494 1.021,3.675 3.086,6.736 5.449,9.661 0.456,0.562 0.804,0.59 1.314,0 2.443,-2.872 4.509,-5.986 5.448,-9.634 1.02,-3.865 1.1,-7.811 -0.323,-11.594 -1.609,-4.295 -3.381,-8.508 -3.757,-13.124 -0.052,-0.75 -0.1,-1.499 -0.14,-2.253 0.551,0.337 1.101,0.676 1.649,1.017 0.217,1.39 0.439,2.754 0.692,4.108 0.59,3.355 2.388,6.146 5.61,7.354 3.203,1.215 6.352,0.448 8.279,-1.719 5.394,3.87 10.588,7.911 15.574,12.111 0.093,1.36 0.334,2.721 0.702,4.073 0.993,3.675 3.059,6.736 5.42,9.661 0.484,0.562 0.805,0.59 1.316,0 1.171,-1.366 2.243,-2.776 3.153,-4.28 3.785,3.583 7.433,7.26 10.933,11.03 -1.298,0.177 -2.454,0.634 -2.788,2.589 1.825,0.403 3.623,0.698 4.589,2.415 0.376,0.617 0.537,1.341 0.858,2.227 -1.072,0 -1.877,0.028 -2.656,0 -1.341,-0.053 -2.281,0.456 -2.604,1.825 -0.321,1.422 0.242,2.334 1.692,2.925 0.133,0.054 0.267,0.108 0.509,0.215 -0.376,2.657 -0.67,5.287 -2.844,7.326 -2.282,2.148 -4.644,0.375 -5.099,-1.718 -0.322,-1.421 -0.188,-2.951 -0.269,-4.535 -2.146,0.565 -3.784,1.959 -4.697,3.892 -1.689,3.569 -2.12,7.3 -0.186,10.949 0.992,1.852 2.575,3.14 4.75,3.516 5.206,0.859 8.668,-2.549 9.822,-6.898 0.562,-2.012 0.992,-4.079 1.261,-6.172 0.267,-2.066 0.267,-4.186 0.376,-6.44 0.349,-0.027 0.723,-0.054 1.127,-0.081 0.08,5.341 -0.161,10.547 -1.611,15.565 -0.724,2.604 -1.985,5.045 -2.791,7.621 -1.1,3.462 -0.992,7.005 -0.027,10.494 1.02,3.676 3.06,6.762 5.448,9.661 0.456,0.563 0.806,0.591 1.316,0 2.442,-2.871 4.507,-5.957 5.447,-9.634 1.019,-3.837 1.1,-7.81 -0.322,-11.593 -1.61,-4.294 -3.381,-8.508 -3.784,-13.123 -0.214,-2.711 -0.268,-5.421 -0.348,-8.133 0,-0.321 0.428,-0.643 0.697,-1.019 0.644,4.294 1.153,8.185 1.852,12.023 0.617,3.355 2.388,6.146 5.635,7.353 3.077,1.162 6.065,0.495 8.015,-1.447 17.584,26.857 28.66,56.815 31.937,88.163 H -44.788 v -26.73 c 0.985,1.32 2.362,2.228 4.116,2.522 5.202,0.87 8.661,-2.558 9.832,-6.884 0.549,-2.024 0.98,-4.094 1.246,-6.172 0.269,-2.082 0.267,-4.198 0.391,-6.446 0.348,-0.024 0.719,-0.05 1.13,-0.079 0.059,5.343 -0.169,10.536 -1.608,15.567 -0.739,2.591 -1.987,5.033 -2.804,7.604 -1.103,3.472 -0.996,7.007 -0.031,10.51 1.011,3.664 3.075,6.739 5.44,9.646 0.471,0.58 0.805,0.599 1.316,0.003 2.448,-2.858 4.513,-5.968 5.464,-9.622 1.004,-3.859 1.095,-7.82 -0.329,-11.607 -1.608,-4.285 -3.392,-8.51 -3.769,-13.129 -0.219,-2.701 -0.29,-5.417 -0.356,-8.127 -0.008,-0.319 0.438,-0.649 0.694,-1.004 0.653,4.284 1.155,8.17 1.858,12.02 0.612,3.354 2.391,6.138 5.624,7.344 4.726,1.765 9.274,-0.731 10.081,-5.62 0.633,-3.833 0.34,-7.61 -2.683,-10.546 -0.852,-0.829 -2.006,-1.35 -3.283,-2.182 10e-4,1.798 0.073,3.146 -0.032,4.482 -0.048,0.609 -0.322,1.299 -0.716,1.763 -1.647,1.938 -3.64,1.729 -5.211,-0.383 -1.471,-1.972 -1.807,-4.234 -1.981,-6.641 1.264,-0.293 2.044,-0.948 2.098,-2.285 0.068,-1.635 -0.744,-2.564 -2.381,-2.601 -0.88,-0.021 -1.76,-0.003 -2.637,-0.003 0.033,-2.25 1.033,-3.172 5.058,-4.794 -0.212,-1.932 -0.306,-1.983 -5.083,-2.726 0.02,-0.397 0.041,-0.806 0.058,-1.215 0.074,-1.878 -0.683,-3.325 -2.196,-4.439 -0.679,-0.5 -1.198,-0.512 -1.862,0.014 -1.577,1.252 -2.448,2.789 -2.214,4.852 0.027,0.227 0.004,0.458 0.004,0.789 -1.963,0.451 -4.619,-0.269 -5.165,2.878 1.84,0.388 3.633,0.703 4.609,2.413 0.35,0.617 0.514,1.338 0.844,2.229 -1.081,0 -1.866,0.028 -2.648,-0.006 -1.342,-0.058 -2.288,0.464 -2.602,1.815 -0.331,1.433 0.232,2.348 1.697,2.937 0.125,0.05 0.249,0.104 0.49,0.206 -0.365,2.663 -0.669,5.282 -2.834,7.325 -2.287,2.158 -4.638,0.398 -5.103,-1.701 -0.315,-1.428 -0.195,-2.95 -0.277,-4.532 -1.813,0.464 -3.28,1.55 -4.245,3.063 v -24.576 c 1.905,-2.455 3.463,-5.101 4.243,-8.156 1.02,-3.837 1.101,-7.81 -0.321,-11.593 -1.611,-4.294 -3.382,-8.508 -3.757,-13.123 -0.069,-0.773 -0.122,-1.547 -0.165,-2.319 v -6.246 c 0.151,-0.186 0.351,-0.378 0.486,-0.587 0.672,4.294 1.155,8.185 1.852,12.023 0.618,3.355 2.416,6.146 5.636,7.353 4.722,1.772 9.286,-0.724 10.09,-5.609 0.618,-3.838 0.323,-7.622 -2.683,-10.546 -0.86,-0.833 -2.013,-1.37 -3.301,-2.202 0,1.799 0.079,3.167 -0.027,4.483 -0.054,0.617 -0.323,1.314 -0.725,1.771 -1.637,1.932 -3.622,1.718 -5.206,-0.376 -1.449,-1.985 -1.799,-4.24 -1.986,-6.655 1.288,-0.295 2.067,-0.939 2.12,-2.281 0.053,-1.637 -0.751,-2.55 -2.388,-2.604 -0.887,-0.026 -1.771,0 -2.631,0 0.028,-2.254 1.021,-3.166 5.045,-4.803 -0.213,-1.932 -0.295,-1.959 -5.071,-2.71 0,-0.403 0.026,-0.806 0.054,-1.208 0.061,-1.439 -0.38,-2.626 -1.265,-3.61 v -27.925 c 0.985,1.325 2.354,2.221 4.109,2.525 5.206,0.857 8.668,-2.577 9.849,-6.898 0.537,-2.012 0.967,-4.079 1.234,-6.173 m -3,-4.527 c -0.335,2.009 -0.908,3.903 -2.554,5.467 -2.308,2.174 -4.644,0.403 -5.126,-1.691 -0.295,-1.422 -0.189,-2.952 -0.269,-4.536 -1.807,0.458 -3.282,1.561 -4.243,3.074 v -8.806 c 4.145,2.077 8.211,4.242 12.192,6.492 m -33.879,34.055 c 5.593,0 11.52,1.045 17.881,3.54 v 16.604 c -21.281,-11.359 -35.364,-1.19 -52.205,10.933 -13.52,9.73 -28.924,20.843 -48.998,19.453 2.453,-4.074 5.058,-8.09 7.814,-12.038 0.913,-1.308 1.844,-2.605 2.788,-3.896 10.506,-2.199 19.72,-8.826 29.486,-15.865 12.185,-8.775 26.006,-18.731 43.234,-18.731 m 17.881,55.031 c -21.281,-11.359 -35.364,-1.189 -52.205,10.933 -16.79,12.113 -36.513,26.306 -64.459,15.988 1.832,-4.708 3.848,-9.364 6.048,-13.96 20.038,6.868 34.048,-3.246 49.501,-14.373 12.185,-8.775 26.006,-18.732 43.234,-18.732 5.593,0 11.52,1.046 17.881,3.541 z m -121.976,42.45 c 26.429,15.851 42.656,4.16 60.861,-8.974 12.185,-8.776 26.006,-18.732 43.234,-18.732 5.593,0 11.52,1.045 17.881,3.54 v 16.604 c -21.281,-11.359 -35.364,-1.191 -52.205,10.931 -18.562,13.395 -40.726,29.353 -73.619,11.834 1.074,-5.107 2.359,-10.178 3.848,-15.203 m 186.995,-9.42 c 0.652,4.284 1.155,8.17 1.857,12.02 0.613,3.354 2.393,6.138 5.623,7.344 4.729,1.765 9.276,-0.731 10.082,-5.62 0.634,-3.833 0.34,-7.61 -2.681,-10.546 -0.854,-0.829 -2.006,-1.35 -3.284,-2.182 0,1.798 0.074,3.146 -0.033,4.482 -0.048,0.609 -0.321,1.299 -0.715,1.763 -1.646,1.938 -3.639,1.729 -5.212,-0.383 -1.469,-1.972 -1.806,-4.234 -1.981,-6.641 1.265,-0.293 2.046,-0.948 2.1,-2.285 0.067,-1.635 -0.745,-2.564 -2.381,-2.601 -0.88,-0.021 -1.761,-0.003 -2.639,-0.003 0.033,-2.25 1.033,-3.172 5.06,-4.794 -0.213,-1.932 -0.308,-1.983 -5.083,-2.726 0.018,-0.397 0.041,-0.806 0.056,-1.215 0.075,-1.878 -0.681,-3.325 -2.195,-4.439 -0.68,-0.5 -1.197,-0.512 -1.861,0.014 -1.578,1.252 -2.45,2.789 -2.214,4.852 0.025,0.227 0.004,0.458 0.004,0.789 -1.963,0.451 -4.621,-0.269 -5.165,2.878 1.839,0.388 3.632,0.703 4.607,2.413 0.352,0.617 0.516,1.338 0.846,2.229 -1.081,0 -1.866,0.028 -2.65,-0.006 -1.342,-0.058 -2.289,0.464 -2.6,1.815 -0.331,1.433 0.23,2.348 1.695,2.937 0.125,0.05 0.25,0.104 0.49,0.206 -0.365,2.663 -0.669,5.282 -2.834,7.325 -2.287,2.158 -4.636,0.398 -5.101,-1.701 -0.317,-1.428 -0.197,-2.95 -0.278,-4.532 -2.128,0.545 -3.78,1.946 -4.702,3.888 -1.688,3.554 -2.107,7.298 -0.178,10.933 0.987,1.862 2.582,3.162 4.752,3.526 5.202,0.87 8.661,-2.558 9.832,-6.884 0.547,-2.024 0.978,-4.094 1.246,-6.172 0.268,-2.082 0.265,-4.198 0.389,-6.446 0.349,-0.024 0.719,-0.05 1.13,-0.079 0.061,5.343 -0.169,10.536 -1.606,15.567 -0.74,2.591 -1.988,5.033 -2.806,7.604 -1.101,3.472 -0.997,7.007 -0.029,10.51 1.011,3.664 3.074,6.739 5.438,9.646 0.473,0.58 0.807,0.599 1.317,0.003 2.448,-2.858 4.512,-5.968 5.464,-9.622 1.003,-3.859 1.094,-7.82 -0.329,-11.607 -1.608,-4.285 -3.391,-8.51 -3.768,-13.129 -0.22,-2.701 -0.29,-5.417 -0.358,-8.127 -0.006,-0.319 0.439,-0.649 0.695,-1.004 m 40.481,0 c 0.652,4.284 1.155,8.17 1.857,12.02 0.613,3.354 2.392,6.138 5.624,7.344 4.727,1.765 9.275,-0.731 10.082,-5.62 0.632,-3.833 0.34,-7.61 -2.683,-10.546 -0.852,-0.829 -2.006,-1.35 -3.282,-2.182 0,1.798 0.072,3.146 -0.033,4.482 -0.048,0.609 -0.322,1.299 -0.715,1.763 -1.648,1.938 -3.641,1.729 -5.212,-0.383 -1.471,-1.972 -1.808,-4.234 -1.983,-6.641 1.266,-0.293 2.046,-0.948 2.1,-2.285 0.067,-1.635 -0.743,-2.564 -2.381,-2.601 -0.88,-0.021 -1.76,-0.003 -2.638,-0.003 0.034,-2.25 1.034,-3.172 5.059,-4.794 -0.213,-1.932 -0.307,-1.983 -5.083,-2.726 0.02,-0.397 0.041,-0.806 0.058,-1.215 0.074,-1.878 -0.682,-3.325 -2.198,-4.439 -0.677,-0.5 -1.197,-0.512 -1.86,0.014 -1.577,1.252 -2.448,2.789 -2.214,4.852 0.027,0.227 0.003,0.458 0.003,0.789 -1.962,0.451 -4.62,-0.269 -5.164,2.878 1.84,0.388 3.631,0.703 4.609,2.413 0.35,0.617 0.514,1.338 0.844,2.229 -1.081,0 -1.865,0.028 -2.648,-0.006 -1.343,-0.058 -2.289,0.464 -2.602,1.815 -0.331,1.433 0.231,2.348 1.696,2.937 0.126,0.05 0.249,0.104 0.49,0.206 -0.364,2.663 -0.668,5.282 -2.833,7.325 -2.287,2.158 -4.638,0.398 -5.103,-1.701 -0.315,-1.428 -0.197,-2.95 -0.276,-4.532 -2.129,0.545 -3.78,1.946 -4.702,3.888 -1.69,3.554 -2.109,7.298 -0.179,10.933 0.987,1.862 2.581,3.162 4.752,3.526 5.2,0.87 8.66,-2.558 9.831,-6.884 0.549,-2.024 0.98,-4.094 1.246,-6.172 0.269,-2.082 0.266,-4.198 0.391,-6.446 0.347,-0.024 0.718,-0.05 1.13,-0.079 0.059,5.343 -0.169,10.536 -1.608,15.567 -0.74,2.591 -1.987,5.033 -2.804,7.604 -1.103,3.472 -0.998,7.007 -0.031,10.51 1.012,3.664 3.074,6.739 5.44,9.646 0.471,0.58 0.804,0.599 1.315,0.003 2.448,-2.858 4.514,-5.968 5.464,-9.622 1.004,-3.859 1.096,-7.82 -0.327,-11.607 -1.61,-4.285 -3.393,-8.51 -3.77,-13.129 -0.219,-2.701 -0.291,-5.417 -0.356,-8.127 -0.008,-0.319 0.437,-0.649 0.694,-1.004 m -11.259,-53.616 c -1.144,0.28 -2.324,-0.284 -3.347,-1.631 -1.173,-1.577 -1.618,-3.325 -1.846,-5.187 1.78,2.246 3.51,4.519 5.193,6.818 m -49.462,-8.515 c 0.652,4.283 1.155,8.168 1.857,12.019 0.612,3.355 2.393,6.138 5.623,7.344 4.728,1.764 9.275,-0.731 10.082,-5.62 0.633,-3.832 0.341,-7.611 -2.682,-10.546 -0.853,-0.829 -2.006,-1.351 -3.283,-2.182 0,1.798 0.073,3.147 -0.032,4.482 -0.048,0.609 -0.321,1.298 -0.716,1.763 -1.646,1.937 -3.639,1.729 -5.213,-0.383 -1.468,-1.972 -1.805,-4.234 -1.98,-6.641 1.263,-0.293 2.045,-0.947 2.099,-2.284 0.067,-1.636 -0.745,-2.565 -2.38,-2.602 -0.881,-0.02 -1.762,-0.003 -2.639,-0.003 0.032,-2.251 1.032,-3.173 5.059,-4.795 -0.212,-1.93 -0.307,-1.982 -5.083,-2.724 0.019,-0.399 0.041,-0.807 0.057,-1.216 0.074,-1.878 -0.683,-3.324 -2.196,-4.44 -0.678,-0.5 -1.197,-0.511 -1.861,0.015 -1.578,1.252 -2.449,2.789 -2.213,4.853 0.025,0.226 0.002,0.458 0.002,0.789 -1.962,0.45 -4.62,-0.27 -5.164,2.878 1.838,0.387 3.631,0.702 4.608,2.413 0.35,0.616 0.515,1.337 0.845,2.228 -1.08,0 -1.867,0.027 -2.648,-0.007 -1.344,-0.056 -2.289,0.465 -2.601,1.816 -0.332,1.432 0.229,2.347 1.694,2.937 0.126,0.05 0.25,0.104 0.49,0.206 -0.364,2.662 -0.668,5.283 -2.833,7.325 -2.286,2.158 -4.638,0.398 -5.101,-1.702 -0.316,-1.426 -0.198,-2.949 -0.279,-4.531 -2.128,0.545 -3.778,1.945 -4.702,3.888 -1.687,3.554 -2.106,7.299 -0.178,10.932 0.989,1.863 2.582,3.163 4.752,3.527 5.201,0.87 8.66,-2.558 9.832,-6.884 0.548,-2.023 0.979,-4.095 1.246,-6.172 0.268,-2.082 0.266,-4.198 0.389,-6.446 0.35,-0.025 0.72,-0.05 1.13,-0.079 0.061,5.342 -0.169,10.536 -1.606,15.567 -0.741,2.591 -1.988,5.031 -2.804,7.605 -1.104,3.471 -0.997,7.006 -0.031,10.509 1.01,3.664 3.075,6.74 5.44,9.646 0.472,0.58 0.805,0.598 1.315,0.003 2.449,-2.859 4.512,-5.968 5.463,-9.622 1.004,-3.859 1.096,-7.82 -0.327,-11.608 -1.609,-4.284 -3.392,-8.508 -3.768,-13.128 -0.221,-2.701 -0.291,-5.417 -0.358,-8.128 -0.008,-0.318 0.439,-0.648 0.695,-1.002 m -44.779,106.079 v 173.683 h -129.92 v -153.75 c 0,-6.672 0.354,-13.323 1.051,-19.933 z m 1.904,-177.742 -0.834,0.408 c -40.249,19.639 -73.992,47.87 -97.579,81.639 -24.346,34.889 -37.217,74.87 -37.217,115.628 V 108.731 H 88.939 V -48.822 c 0,-6.666 -0.346,-13.439 -1.031,-20.134 -7.641,-73.815 -57.645,-140.032 -133.765,-177.134 z m 67.783,193.2 21.978,38.081 21.981,-38.081 z m -45.81,0 22.006,38.081 21.979,-38.081 z M -22.812,38.081 -1.772,0 h -42.107 z m 20.101,53.27 21.979,-38.054 h -43.985 z m 45.782,0 21.981,-38.054 H 21.093 Z"
       style="fill:#ffffff;fill-opacity:1;fill-rule:evenodd;stroke:none"
       transform="matrix(1.3333333,0,0,-1.3333333,604.612,458.5288)" />
    <path
       id="path4"
       d="m 0,0 c -6.072,11.066 -3.729,4.789 -14.182,8.898 -5.86,2.303 -9.95,5.755 -12.803,10.168 -3.299,5.102 -5.446,10.673 -4.539,18.275 0.311,2.613 2.504,8.33 2.484,9.132 -0.037,1.461 -3.359,5.849 -4.129,7.393 -3.975,-1.734 -65.856,-41.597 -68.033,-43.043 -12.422,-8.254 -16.492,-9.555 -29.211,-19.416 -12.972,-10.053 -22.786,-24.416 -12.861,-41.082 3.631,-6.095 7.008,-10.814 14.22,-13.575 7.556,-2.893 16.374,-1.101 23.572,1.415 15.666,5.478 54.249,30.513 70.705,40.401 l 25.971,15.71 C -5.766,-3.813 -2.515,-2.176 0,0"
       style="fill:#ffffff;fill-opacity:1;fill-rule:evenodd;stroke:none"
       transform="matrix(1.3333333,0,0,-1.3333333,474.29693,949.062)" />
    <path
       id="path5"
       d="m 0,0 c -0.922,-2.63 -2.982,-4.643 -4.052,-7.16 1.587,-1.796 29.903,-18.449 34.437,-21.17 11.656,-6.998 23.19,-13.726 34.654,-20.897 11.03,-6.9 22.352,-14.521 35.933,-19.629 33.767,-12.7 46.106,19.379 41.154,33.68 -1.326,3.832 -2.9,5.905 -5.078,8.797 -1.456,1.931 -1.465,1.904 -3.278,3.672 -7.634,7.456 -8.156,8.478 -19.133,15.602 C 109.232,-3.6 103.111,0.113 97.477,3.526 80.912,13.566 63.205,25.59 46.614,36 c -2.999,1.883 -5.33,3.415 -8.481,5.402 -2.731,1.724 -6.087,4.082 -8.865,5.237 C 28.512,45.511 25.781,41.302 25.372,40.354 24.086,37.372 31.689,29.203 25.147,15.499 20.978,6.768 12.912,0.315 0,0"
       style="fill:#ffffff;fill-opacity:1;fill-rule:evenodd;stroke:none"
       transform="matrix(1.3333333,0,0,-1.3333333,621.974,939.51507)" />
    <path
       id="path6"
       d="m 0,0 c 6.499,7.632 3.404,8.356 2.217,13.147 -3.917,15.81 7.395,32.978 26.437,33.306 1.474,2.03 3.648,4.901 4.622,7.415 -4.178,1.619 -11.351,6.435 -15.677,8.893 -5.274,2.996 -10.46,6.207 -16.09,9.021 -5.561,2.782 -10.713,5.765 -16.408,8.695 -16.251,8.361 -35.202,17.106 -52.986,22.342 -5.486,1.614 -14.838,4.235 -20.804,4.296 -7.191,0.069 -10.175,-4.911 -13.476,-11.635 -4.186,-8.525 3.137,-14.942 7.484,-20.526 5.006,-6.428 7.399,-7.854 12.24,-12.88 9.859,-10.234 19.399,-17.329 30.507,-26.12 2.432,-1.926 4.958,-3.839 7.324,-5.504 L -15.151,9.704 C -10.999,6.928 -3.896,1.734 0,0"
       style="fill:#ffffff;fill-opacity:1;fill-rule:evenodd;stroke:none"
       transform="matrix(1.3333333,0,0,-1.3333333,585.28133,929.4864)" />
    <path
       id="path7"
       d="m 0,0 c 0.104,-0.096 0.274,-0.087 0.33,-0.266 l 36.398,-19.311 c 3.317,-1.901 8.852,-5.537 12.086,-6.747 4.366,3.325 13.664,14.883 17.047,19.967 3.526,5.295 2.791,8.387 -0.191,13.582 -1.913,3.331 -4.809,8.604 -9.109,9.56 C 46.775,18.959 6.339,4.651 0,0"
       style="fill:#ffffff;fill-opacity:1;fill-rule:evenodd;stroke:none"
       transform="matrix(1.3333333,0,0,-1.3333333,552.9584,809.44733)" />
    <path
       id="path8"
       d="m 0,0 4.309,-7.226 c 19.275,-0.648 29.984,-16.559 26.872,-32.6 -2.051,-10.565 -4.018,-3.804 1.947,-13.907 2.831,1.393 24.926,16.066 25.933,17.492 -8.732,6.671 -16.875,11.97 -26.273,19.51 -4.213,3.379 -8.399,6.525 -12.628,10.342 L 7.905,4.493 C 4.89,3.343 2.658,1.415 0,0"
       style="fill:#ffffff;fill-opacity:1;fill-rule:evenodd;stroke:none"
       transform="matrix(1.3333333,0,0,-1.3333333,461.48187,857.9604)" />
    <path
       id="path9"
       d="m 0,0 c -7.469,-1.619 -12.025,-5.089 -15.012,-9.38 -13.086,-18.806 3.534,-42.403 24.629,-37.91 11.751,2.502 21.672,13.749 18.643,28.778 C 25.973,-7.16 14.064,3.055 0,0 M 0.7,-3.552 C 27.485,1.713 34.746,-38.451 8.596,-43.666 -17.942,-48.962 -25.785,-8.758 0.7,-3.552"
       style="fill:#ffffff;fill-opacity:1;fill-rule:evenodd;stroke:none"
       transform="matrix(1.3333333,0,0,-1.3333333,616.97133,872.0268)" />
    <path
       id="path10"
       d="m 0,0 c -11.835,-2.248 -22.322,-13.304 -19.523,-28.218 2.255,-12.03 13.718,-21.918 28.318,-19.309 11.655,2.082 22.054,13.972 19.214,28.384 C 25.693,-7.383 14.245,2.706 0,0 m -15.959,-26.386 c -3.384,27.085 37.005,31.821 40.583,5.363 3.612,-26.709 -37.233,-32.171 -40.583,-5.363"
       style="fill:#ffffff;fill-opacity:1;fill-rule:evenodd;stroke:none"
       transform="matrix(1.3333333,0,0,-1.3333333,462.16413,871.85493)" />
    <path
       id="path11"
       d="M 0,0 3.4,-5.854 C 5.641,-5.119 20,4.039 21.991,5.649 L 18.619,11.36 C 18.066,10.949 18.203,11.091 17.666,10.612 17.029,10.045 17.011,9.993 16.582,9.508 14.875,7.58 13.24,5.748 10.756,4.143 7.252,1.881 4.559,1.381 0,0"
       style="fill:#ffffff;fill-opacity:1;fill-rule:evenodd;stroke:none"
       transform="matrix(1.3333333,0,0,-1.3333333,473.02867,939.28587)" />
    <path
       id="path12"
       d="m 0,0 c 10.852,-4.798 6.043,0.681 17.403,-10.3 l 1.405,-1.179 c 0.748,2.238 2.287,3.729 2.995,6.064 L 3.539,5.904 Z"
       style="fill:#ffffff;fill-opacity:1;fill-rule:evenodd;stroke:none"
       transform="matrix(1.3333333,0,0,-1.3333333,628.2344,867.75987)" />
    <path
       id="path13"
       d="m 0,0 c 4.557,-1.756 14.373,-9.57 18.29,-11.07 0.987,1.092 3.252,4.662 3.761,6.043 C 15.543,-4.128 11.086,-1.654 7.069,2.385 6.326,3.131 5.922,3.576 5.239,4.271 L 3.161,6.2 C 2.369,3.963 0.961,2.624 0,0"
       style="fill:#ffffff;fill-opacity:1;fill-rule:evenodd;stroke:none"
       transform="matrix(1.3333333,0,0,-1.3333333,588.67187,932.30413)" />
    <path
       id="path14"
       d="M 0,0 C 0.505,-1.394 1.096,-2.317 1.691,-3.343 1.84,-3.6 2.345,-4.48 2.491,-4.676 l 1.567,-1.539 c 1.058,2.607 4.756,5.752 7.113,7.298 4.104,2.69 6.531,2.373 10.605,4.123 l -3.075,5.772 z"
       style="fill:#ffffff;fill-opacity:1;fill-rule:evenodd;stroke:none"
       transform="matrix(1.3333333,0,0,-1.3333333,433.40107,874.80027)" />
    <path
       id="path15"
       d="M 0,0 C 0,-1.887 0.071,-2.785 0.747,-2.965 0.89,-3.145 0.854,-3.908 0.641,-4.043 0.036,-4.178 -0.89,-4.312 -1.851,-4.717 c -1.245,-0.494 -4.305,-1.078 -6.297,-1.078 -2.42,0 -4.484,0.315 -7.01,1.572 -4.163,2.112 -7.011,7.098 -7.011,13.567 0,5.615 1.993,10.556 6.264,13.566 2.419,1.662 5.301,2.381 8.326,2.381 3.949,0 5.906,-1.078 7.045,-1.078 0.107,-1.348 0.142,-4.492 0.499,-7.233 -0.143,-0.494 -1.104,-0.539 -1.353,-0.089 -1.138,4.222 -3.381,6.334 -6.689,6.334 -5.658,0 -8.399,-5.93 -8.399,-13.028 0,-6.424 1.744,-10.242 4.057,-12.218 1.708,-1.438 3.559,-1.708 4.875,-1.708 2.028,0 2.455,0.495 2.455,3.414 v 2.831 c 0,2.425 -0.213,2.695 -1.921,3.009 l -1.565,0.27 c -0.392,0.269 -0.392,1.303 0,1.572 2.526,-0.09 4.269,-0.135 6.013,-0.135 1.708,0 3.452,0.045 4.662,0.135 0.284,-0.269 0.284,-1.303 0,-1.572 L 1.281,5.615 C 0.214,5.391 0,4.941 0,2.516 Z"
       style="fill:#ffffff;fill-opacity:1;fill-rule:nonzero;stroke:none"
       transform="matrix(1.3333333,0,0,-1.3333333,392.09253,124.63027)" />
    <path
       id="path16"
       d="m 0,0 c 0,-1.258 0.036,-1.348 0.997,-1.348 h 2.455 c 1.851,0 2.277,0.315 2.633,2.471 L 6.263,2.246 C 6.513,2.605 7.401,2.605 7.58,2.201 7.509,0.764 7.473,-0.854 7.473,-2.56 7.473,-4.268 7.509,-5.885 7.58,-7.322 7.401,-7.727 6.513,-7.771 6.263,-7.367 L 6.085,-6.244 C 5.729,-4.088 5.303,-3.729 3.452,-3.729 H 0.997 C 0.036,-3.729 0,-3.773 0,-5.121 v -5.346 c 0,-2.066 0.143,-3.504 0.569,-4.267 0.463,-0.809 1.139,-1.168 3.737,-1.168 3.095,0 4.305,0.134 6.262,5.211 0.285,0.494 1.175,0.314 1.318,-0.225 -0.143,-2.336 -0.997,-5.975 -1.495,-7.188 -1.886,0.09 -5.302,0.135 -8.22,0.135 h -4.626 c -1.708,0 -3.451,-0.045 -6.12,-0.135 -0.285,0.27 -0.285,1.348 0,1.573 l 1.673,0.314 c 1.6,0.315 1.814,0.584 1.814,4.717 V 5.256 c 0,4.088 -0.214,4.357 -1.814,4.762 l -0.89,0.224 c -0.32,0.27 -0.285,1.303 0.07,1.573 1.673,-0.09 3.416,-0.135 5.125,-0.135 h 7.543 c 2.278,0 4.306,0.045 4.769,0.135 C 9.75,11.096 9.999,7.861 10.178,4.852 10.035,4.357 9.217,4.268 8.86,4.672 8.47,6.244 7.971,7.592 7.509,8.221 6.832,9.074 5.765,9.613 4.021,9.613 H 1.175 C 0,9.613 0,9.523 0,7.861 Z"
       style="fill:#ffffff;fill-opacity:1;fill-rule:nonzero;stroke:none"
       transform="matrix(1.3333333,0,0,-1.3333333,411.21747,107.44027)" />
    <path
       id="path17"
       d="m 0,0 c 0,-2.92 0,-5.75 0.071,-7.232 -0.249,-0.539 -1.245,-1.034 -2.099,-1.034 -0.035,0 -1.21,2.291 -2.882,4.897 l -8.22,12.848 c -2.064,3.189 -3.238,5.076 -3.879,5.75 -0.177,-0.45 -0.177,-1.213 -0.177,-2.875 V 3.639 c 0,-3.639 0.142,-7.008 0.533,-8.221 0.32,-0.943 1.138,-1.258 2.064,-1.437 l 0.996,-0.18 c 0.285,-0.36 0.214,-1.303 0,-1.572 -1.922,0.089 -3.344,0.134 -4.767,0.134 -1.318,0 -2.634,-0.045 -3.987,-0.134 -0.213,0.269 -0.284,1.212 0,1.572 l 0.606,0.135 c 0.961,0.224 1.672,0.539 1.957,1.482 0.391,1.213 0.498,4.582 0.498,8.221 v 11.41 c 0,2.471 -0.035,3.189 -0.249,3.818 -0.284,0.764 -0.783,1.303 -2.028,1.528 l -0.997,0.179 c -0.249,0.36 -0.213,1.438 0.143,1.573 1.672,-0.09 3.451,-0.135 4.91,-0.135 1.21,0 2.242,0.045 2.989,0.135 0.356,-2.022 2.669,-5.436 5.872,-10.243 L -5.657,7.457 C -4.092,5.121 -3.06,3.549 -2.241,2.516 -2.1,2.965 -2.1,3.729 -2.1,4.537 v 6.199 c 0,3.639 -0.141,7.008 -0.533,8.221 -0.32,0.943 -1.103,1.258 -2.063,1.438 l -0.961,0.179 c -0.285,0.36 -0.214,1.303 0,1.573 1.921,-0.09 3.308,-0.135 4.767,-0.135 1.317,0 2.598,0.045 3.986,0.135 0.214,-0.27 0.285,-1.213 0,-1.573 L 2.455,20.44 C 1.53,20.26 0.854,19.9 0.534,18.957 0.143,17.744 0,14.375 0,10.736 Z"
       style="fill:#ffffff;fill-opacity:1;fill-rule:nonzero;stroke:none"
       transform="matrix(1.3333333,0,0,-1.3333333,461.65493,121.21627)" />
    <path
       id="path18"
       d="M 0,0 C 0,1.078 0,1.303 -0.854,1.303 H -3.06 c -2.598,0 -3.345,-1.797 -4.413,-5.076 -0.427,-0.27 -1.103,-0.18 -1.317,0.404 0.748,3.099 0.926,5.885 1.175,7.637 0.142,0.134 0.32,0.224 0.498,0.224 0.178,0 0.355,-0.045 0.498,-0.18 0.178,-0.763 0.285,-0.943 2.989,-0.943 H 9.608 c 2.348,0 2.881,0.045 3.202,0.988 0.142,0.09 0.249,0.135 0.463,0.135 0.212,0 0.461,-0.18 0.533,-0.314 C 13.45,2.65 13.201,-0.988 13.273,-3.549 13.095,-3.953 12.134,-4.043 11.956,-3.684 11.351,-0.809 10.853,1.303 8.184,1.303 H 6.049 C 5.194,1.303 5.088,1.168 5.088,0 v -19.811 c 0,-4.177 0.214,-4.537 1.814,-4.806 l 1.424,-0.225 c 0.249,-0.269 0.249,-1.303 0,-1.572 -2.313,0.09 -4.092,0.135 -5.693,0.135 -1.708,0 -3.559,-0.045 -6.049,-0.135 -0.285,0.269 -0.285,1.303 0,1.572 l 1.601,0.225 C -0.214,-24.393 0,-23.988 0,-19.811 Z"
       style="fill:#ffffff;fill-opacity:1;fill-rule:nonzero;stroke:none"
       transform="matrix(1.3333333,0,0,-1.3333333,481.87107,96.359467)" />
    <path
       id="path19"
       d="m 0,0 c 0,-2.111 0.143,-3.549 0.605,-4.268 0.463,-0.763 1.103,-1.123 3.701,-1.123 3.238,0 4.234,0.135 6.334,5.346 0.285,0.449 1.103,0.27 1.352,-0.269 -0.178,-2.336 -1.032,-6.065 -1.53,-7.278 -1.886,0.09 -5.302,0.135 -8.22,0.135 h -4.768 c -1.637,0 -3.416,-0.045 -5.622,-0.135 -0.321,0.27 -0.392,1.303 -0.107,1.573 l 1.353,0.224 c 1.6,0.27 1.814,0.629 1.814,4.807 v 16.711 c 0,4.177 -0.214,4.582 -1.814,4.851 l -1.033,0.18 c -0.355,0.269 -0.355,1.303 0.072,1.572 1.85,-0.09 3.629,-0.135 5.337,-0.135 1.708,0 3.487,0.045 5.266,0.135 0.285,-0.269 0.285,-1.303 0,-1.572 L 1.815,20.574 C 0.214,20.26 0,19.9 0,15.723 Z"
       style="fill:#ffffff;fill-opacity:1;fill-rule:nonzero;stroke:none"
       transform="matrix(1.3333333,0,0,-1.3333333,516.12893,121.45587)" />
    <path
       id="path20"
       d="m 0,0 c 0,-1.258 0.036,-1.348 0.997,-1.348 h 2.455 c 1.851,0 2.278,0.315 2.633,2.471 L 6.263,2.246 C 6.513,2.605 7.401,2.605 7.58,2.201 7.509,0.764 7.473,-0.854 7.473,-2.56 7.473,-4.268 7.509,-5.885 7.58,-7.322 7.401,-7.727 6.513,-7.771 6.263,-7.367 L 6.085,-6.244 C 5.73,-4.088 5.303,-3.729 3.452,-3.729 H 0.997 C 0.036,-3.729 0,-3.773 0,-5.121 v -5.346 c 0,-2.066 0.143,-3.504 0.569,-4.267 0.463,-0.809 1.139,-1.168 3.737,-1.168 3.095,0 4.305,0.134 6.262,5.211 0.286,0.494 1.175,0.314 1.318,-0.225 -0.143,-2.336 -0.997,-5.975 -1.495,-7.188 -1.886,0.09 -5.302,0.135 -8.22,0.135 h -4.626 c -1.708,0 -3.451,-0.045 -6.12,-0.135 -0.285,0.27 -0.285,1.348 0,1.573 l 1.673,0.314 c 1.6,0.315 1.814,0.584 1.814,4.717 V 5.256 c 0,4.088 -0.214,4.357 -1.814,4.762 l -0.89,0.224 c -0.32,0.27 -0.285,1.303 0.07,1.573 1.673,-0.09 3.416,-0.135 5.125,-0.135 h 7.543 c 2.278,0 4.306,0.045 4.769,0.135 C 9.75,11.096 9.999,7.861 10.178,4.852 10.035,4.357 9.217,4.268 8.86,4.672 8.47,6.244 7.971,7.592 7.509,8.221 6.832,9.074 5.765,9.613 4.022,9.613 H 1.175 C 0,9.613 0,9.523 0,7.861 Z"
       style="fill:#ffffff;fill-opacity:1;fill-rule:nonzero;stroke:none"
       transform="matrix(1.3333333,0,0,-1.3333333,547.44667,107.44027)" />
    <path
       id="path21"
       d="m 0,0 c -0.285,0.359 -0.285,1.437 0.106,1.572 1.21,-0.09 2.741,-0.135 4.484,-0.135 1.175,0 2.206,0 3.487,0.135 0,-2.785 1.246,-5.525 2.812,-9.748 l 2.348,-6.334 c 0.321,-0.898 1.601,-3.728 2.099,-4.851 0.463,1.078 1.032,2.47 1.993,5.121 l 1.814,4.941 c 1.709,4.627 2.598,7.008 3.381,10.871 1.637,-0.179 2.455,-0.135 3.523,-0.135 1.175,0 2.811,0.045 4.092,0.135 C 30.53,1.303 30.53,0.449 30.246,0 l -1.032,-0.225 c -1.459,-0.314 -2.171,-0.853 -2.171,-3.234 0,-9.254 0.071,-14.105 0.285,-19.766 0.071,-2.066 0.214,-3.144 1.602,-3.369 l 1.138,-0.179 c 0.284,-0.36 0.284,-1.393 -0.071,-1.573 -1.637,0.09 -3.167,0.135 -4.911,0.135 -1.601,0 -3.558,-0.045 -5.266,-0.135 -0.427,0.225 -0.463,1.258 -0.107,1.573 l 1.067,0.179 c 1.637,0.27 1.637,0.809 1.637,3.549 l -0.07,11.68 v 5.121 h -0.072 c -2.633,-7.188 -5.48,-14.69 -7.829,-22.281 -0.178,-0.18 -0.426,-0.315 -0.711,-0.315 -0.32,0 -0.712,0.09 -0.926,0.27 C 11.422,-23 7.046,-11.859 5.053,-6.019 H 4.981 c -0.142,-2.92 -0.177,-4.897 -0.213,-7.233 -0.036,-2.92 -0.071,-7.412 -0.071,-10.107 0,-2.246 0.213,-2.875 1.637,-3.145 l 1.388,-0.269 c 0.284,-0.315 0.212,-1.348 -0.072,-1.573 -1.316,0.09 -2.846,0.135 -4.199,0.135 -1.138,0 -2.49,-0.045 -3.914,-0.135 -0.462,0.18 -0.462,1.348 -0.142,1.573 l 0.64,0.134 c 1.816,0.405 2.028,0.674 2.242,3.459 0.178,2.201 0.284,6.11 0.498,10.377 0.143,3.01 0.214,6.649 0.214,9.074 0,2.561 -0.783,3.235 -2.207,3.549 z"
       style="fill:#ffffff;fill-opacity:1;fill-rule:nonzero;stroke:none"
       transform="matrix(1.3333333,0,0,-1.3333333,568.56387,93.784)" />
    <path
       id="path22"
       d="m 0,0 c 0,-1.258 0.036,-1.348 0.997,-1.348 h 2.455 c 1.851,0 2.277,0.315 2.633,2.471 L 6.263,2.246 C 6.512,2.605 7.401,2.605 7.58,2.201 7.509,0.764 7.473,-0.854 7.473,-2.56 7.473,-4.268 7.509,-5.885 7.58,-7.322 7.401,-7.727 6.512,-7.771 6.263,-7.367 L 6.085,-6.244 C 5.729,-4.088 5.303,-3.729 3.452,-3.729 H 0.997 C 0.036,-3.729 0,-3.773 0,-5.121 v -5.346 c 0,-2.066 0.142,-3.504 0.569,-4.267 0.463,-0.809 1.139,-1.168 3.737,-1.168 3.095,0 4.305,0.134 6.262,5.211 0.285,0.494 1.175,0.314 1.318,-0.225 -0.143,-2.336 -0.997,-5.975 -1.495,-7.188 -1.886,0.09 -5.302,0.135 -8.22,0.135 h -4.626 c -1.708,0 -3.451,-0.045 -6.12,-0.135 -0.284,0.27 -0.284,1.348 0,1.573 l 1.673,0.314 c 1.6,0.315 1.814,0.584 1.814,4.717 V 5.256 c 0,4.088 -0.214,4.357 -1.814,4.762 l -0.89,0.224 c -0.32,0.27 -0.285,1.303 0.071,1.573 1.672,-0.09 3.416,-0.135 5.123,-0.135 h 7.544 c 2.278,0 4.306,0.045 4.769,0.135 C 9.75,11.096 9.999,7.861 10.178,4.852 10.035,4.357 9.217,4.268 8.86,4.672 8.47,6.244 7.971,7.592 7.509,8.221 6.832,9.074 5.765,9.613 4.021,9.613 H 1.175 C 0,9.613 0,9.523 0,7.861 Z"
       style="fill:#ffffff;fill-opacity:1;fill-rule:nonzero;stroke:none"
       transform="matrix(1.3333333,0,0,-1.3333333,625.78653,107.44027)" />
    <path
       id="path23"
       d="m 0,0 c 0,-2.92 0,-5.75 0.071,-7.232 -0.249,-0.539 -1.245,-1.034 -2.099,-1.034 -0.036,0 -1.21,2.291 -2.882,4.897 l -8.22,12.848 c -2.064,3.189 -3.238,5.076 -3.879,5.75 -0.178,-0.45 -0.178,-1.213 -0.178,-2.875 V 3.639 c 0,-3.639 0.143,-7.008 0.535,-8.221 0.319,-0.943 1.138,-1.258 2.063,-1.437 l 0.996,-0.18 c 0.285,-0.36 0.214,-1.303 0,-1.572 -1.921,0.089 -3.345,0.134 -4.768,0.134 -1.317,0 -2.633,-0.045 -3.985,-0.134 -0.214,0.269 -0.285,1.212 0,1.572 l 0.605,0.135 c 0.961,0.224 1.673,0.539 1.957,1.482 0.391,1.213 0.498,4.582 0.498,8.221 v 11.41 c 0,2.471 -0.035,3.189 -0.249,3.818 -0.284,0.764 -0.783,1.303 -2.029,1.528 l -0.996,0.179 c -0.249,0.36 -0.213,1.438 0.143,1.573 1.672,-0.09 3.451,-0.135 4.91,-0.135 1.21,0 2.242,0.045 2.989,0.135 0.356,-2.022 2.669,-5.436 5.871,-10.243 l 2.99,-4.447 C -4.092,5.121 -3.06,3.549 -2.241,2.516 -2.1,2.965 -2.1,3.729 -2.1,4.537 v 6.199 c 0,3.639 -0.141,7.008 -0.533,8.221 -0.32,0.943 -1.103,1.258 -2.064,1.438 l -0.96,0.179 c -0.285,0.36 -0.214,1.303 0,1.573 1.921,-0.09 3.308,-0.135 4.767,-0.135 1.318,0 2.598,0.045 3.986,0.135 0.214,-0.27 0.285,-1.213 0,-1.573 L 2.455,20.44 C 1.53,20.26 0.854,19.9 0.534,18.957 0.143,17.744 0,14.375 0,10.736 Z"
       style="fill:#ffffff;fill-opacity:1;fill-rule:nonzero;stroke:none"
       transform="matrix(1.3333333,0,0,-1.3333333,676.224,121.21627)" />
    <path
       id="path24"
       d="m 0,0 c 0,-4.178 -2.669,-6.783 -5.622,-7.637 -0.605,0.09 -0.747,1.078 -0.356,1.393 1.281,0.584 3.025,2.066 3.025,4.178 0,1.886 -1.104,2.515 -1.957,2.785 -0.606,0.224 -1.068,0.943 -1.068,1.976 0,1.528 1.103,2.786 2.455,2.786 C -2.063,5.481 0,3.908 0,0"
       style="fill:#ffffff;fill-opacity:1;fill-rule:nonzero;stroke:none"
       transform="matrix(1.3333333,0,0,-1.3333333,694.448,96.7788)" />
    <path
       id="path25"
       d="m 0,0 c -3.273,0 -5.302,1.168 -6.049,1.707 -0.676,0.988 -1.138,4.223 -1.138,7.277 0.249,0.584 1.067,0.629 1.352,0.135 0.711,-2.92 3.096,-7.053 6.12,-7.053 2.633,0 3.843,2.291 3.843,4.538 0,3.638 -2.704,5.794 -4.839,7.142 -2.562,1.617 -5.373,4.313 -5.373,8.76 -0.036,5.076 3.096,8.58 8.255,8.58 1.175,0 2.634,-0.18 4.056,-0.719 0.463,-0.18 0.784,-0.269 1.21,-0.359 C 7.722,29.02 8.078,26.594 8.078,23.584 7.9,23.045 7.011,23 6.69,23.449 6.085,25.74 4.555,29.02 1.993,29.02 c -2.349,0 -3.63,-1.932 -3.63,-4.178 0,-2.067 1.459,-3.953 3.239,-5.121 L 3.95,18.148 C 6.156,16.666 8.968,14.061 8.968,9.119 8.968,3.594 5.373,0 0,0"
       style="fill:#ffffff;fill-opacity:1;fill-rule:nonzero;stroke:none"
       transform="matrix(1.3333333,0,0,-1.3333333,710.5808,132.35693)" />
    <path
       id="path26"
       d="m 0,0 c 0,-0.809 0.106,-4.402 0.427,-7.008 -0.143,-0.539 -1.104,-0.719 -1.353,-0.314 -0.96,4.177 -3.237,6.424 -6.689,6.424 -3.949,0 -8.185,-4.268 -8.185,-13.208 0,-8.939 4.093,-13.746 8.363,-13.746 4.305,0 6.298,3.909 7.259,6.963 0.284,0.36 1.139,0.225 1.352,-0.314 -0.249,-3.324 -0.854,-6.02 -1.352,-7.053 -1.922,-0.674 -4.448,-1.662 -7.223,-1.662 -3.488,0 -7.046,1.033 -9.573,3.414 -2.561,2.471 -4.519,6.199 -4.519,11.77 0,5.48 1.85,9.343 4.306,11.904 2.526,2.65 6.156,3.998 9.857,3.998 C -3.701,1.168 -1.067,0.09 0,0"
       style="fill:#ffffff;fill-opacity:1;fill-rule:nonzero;stroke:none"
       transform="matrix(1.3333333,0,0,-1.3333333,510.83733,164.3328)" />
    <path
       id="path27"
       d="m 0,0 c 0,-2.111 0.143,-3.549 0.605,-4.268 0.463,-0.763 1.103,-1.123 3.701,-1.123 3.238,0 4.234,0.135 6.334,5.346 0.285,0.449 1.103,0.27 1.352,-0.269 -0.178,-2.336 -1.032,-6.065 -1.53,-7.278 -1.886,0.09 -5.302,0.135 -8.22,0.135 h -4.768 c -1.637,0 -3.416,-0.045 -5.622,-0.135 -0.321,0.27 -0.392,1.303 -0.107,1.573 l 1.353,0.224 c 1.6,0.27 1.814,0.629 1.814,4.807 v 16.711 c 0,4.177 -0.214,4.582 -1.814,4.851 l -1.033,0.18 c -0.356,0.269 -0.356,1.303 0.072,1.572 1.849,-0.09 3.629,-0.135 5.337,-0.135 1.708,0 3.487,0.045 5.266,0.135 0.285,-0.269 0.285,-1.303 0,-1.572 L 1.815,20.574 C 0.214,20.26 0,19.9 0,15.723 Z"
       style="fill:#ffffff;fill-opacity:1;fill-rule:nonzero;stroke:none"
       transform="matrix(1.3333333,0,0,-1.3333333,525.16933,193.3224)" />
    <path
       id="path28"
       d="m 0,0 c 0,4.178 -0.214,4.447 -1.815,4.852 l -0.89,0.224 c -0.284,0.27 -0.32,1.258 0.071,1.528 1.708,-0.09 3.488,-0.135 5.195,-0.135 1.745,0 3.488,0.045 5.196,0.135 0.285,-0.27 0.285,-1.258 0,-1.528 L 6.903,4.896 C 5.302,4.537 5.088,4.178 5.088,0 v -10.377 c 0,-5.256 0.463,-11.051 5.871,-11.051 4.555,0 5.943,5.032 5.943,11.186 v 5.435 c 0,3.639 -0.142,7.053 -0.534,8.221 -0.32,0.943 -1.103,1.213 -2.063,1.438 l -0.961,0.224 c -0.285,0.359 -0.214,1.258 0,1.528 1.921,-0.09 3.308,-0.135 4.767,-0.135 1.318,0 2.634,0.045 3.986,0.135 0.214,-0.27 0.285,-1.169 0,-1.528 l -0.64,-0.18 C 20.531,4.627 19.855,4.357 19.535,3.414 19.143,2.246 19.001,-1.168 19.001,-4.807 v -5.031 c 0,-4.223 -0.32,-8.086 -2.277,-10.826 -1.566,-2.111 -4.163,-3.234 -7.045,-3.234 -2.705,0 -5.124,0.539 -7.046,2.515 C 0.782,-19.451 0,-16.127 0,-11.23 Z"
       style="fill:#ffffff;fill-opacity:1;fill-rule:nonzero;stroke:none"
       transform="matrix(1.3333333,0,0,-1.3333333,544.198,172.3588)" />
    <path
       id="path29"
       d="m 0,0 c 0,-3.504 0.357,-5.705 3.132,-5.705 2.633,0 4.02,2.56 4.02,6.199 0,3.908 -1.779,6.649 -5.195,6.649 C 0,7.143 0,7.098 0,5.301 Z M 0,10.377 C 0,9.209 0.036,9.119 1.886,9.119 c 3.06,0 4.199,2.471 4.199,5.166 0,3.908 -1.922,5.84 -4.377,5.84 C 0.036,20.125 0,19.766 0,17.789 Z m -4.91,4.357 c 0,4.537 -0.071,4.987 -1.566,5.256 l -0.96,0.18 c -0.321,0.224 -0.392,1.572 0.142,1.617 2.704,0.225 5.302,0.404 8.859,0.404 3.417,0 5.694,-0.494 7.26,-1.662 1.531,-1.168 2.455,-3.054 2.455,-5.705 C 11.28,11.051 8.754,9.568 7.65,9.209 7.295,9.119 6.94,8.939 6.94,8.715 6.94,8.58 7.117,8.445 7.437,8.355 10.248,7.592 12.633,5.256 12.668,0.898 12.703,-3.234 10.746,-5.66 8.505,-6.648 6.263,-7.637 3.594,-7.771 1.424,-7.771 c -1.281,0 -2.634,0.179 -3.665,0.179 -1.744,0 -3.487,-0.045 -5.516,-0.135 -0.285,0.27 -0.285,1.438 0,1.573 l 1.032,0.269 c 1.601,0.404 1.815,0.719 1.815,4.762 z"
       style="fill:#ffffff;fill-opacity:1;fill-rule:nonzero;stroke:none"
       transform="matrix(1.3333333,0,0,-1.3333333,586.09507,193.14267)" />
    <path
       id="path30"
       d="M 0,0 C 0,4.537 -0.071,5.076 -1.565,5.301 L -2.669,5.48 c -0.32,0.225 -0.32,1.213 0.071,1.528 2.349,0.224 5.124,0.404 8.22,0.404 3.024,0 5.018,-0.449 6.512,-1.168 2.171,-1.033 4.341,-3.414 4.341,-7.771 0,-7.368 -5.872,-8.446 -7.757,-8.446 -0.427,0 -0.747,0 -1.139,0.045 -0.284,0.225 -0.355,0.944 -0.106,1.213 2.953,1.168 3.557,3.819 3.557,7.143 0,3.324 -1.351,6.918 -4.554,6.918 -1.317,0 -1.388,-0.494 -1.388,-2.291 v -18.957 c 0,-4.178 0.214,-4.538 1.815,-4.852 l 1.139,-0.225 c 0.392,-0.224 0.392,-1.257 0,-1.527 -1.993,0.09 -3.736,0.135 -5.444,0.135 -1.708,0 -3.416,-0.045 -5.338,-0.135 -0.392,0.27 -0.462,1.303 -0.072,1.527 l 0.997,0.225 C -0.214,-20.395 0,-20.08 0,-15.902 Z"
       style="fill:#ffffff;fill-opacity:1;fill-rule:nonzero;stroke:none"
       transform="matrix(1.3333333,0,0,-1.3333333,368.10813,245.30413)" />
    <path
       id="path31"
       d="m 0,0 c -1.459,0 -1.495,-0.045 -1.495,-1.303 v -6.468 c 0,-4.178 0.214,-4.583 1.815,-4.852 l 1.139,-0.18 c 0.284,-0.269 0.284,-1.302 0,-1.572 -2.028,0.09 -3.808,0.135 -5.409,0.135 -1.708,0 -3.487,-0.045 -5.302,-0.135 -0.284,0.27 -0.284,1.303 0,1.572 l 0.855,0.135 c 1.636,0.27 1.814,0.719 1.814,4.897 V 8.94 c 0,4.177 -0.178,4.626 -1.814,4.896 l -0.855,0.135 c -0.284,0.269 -0.284,1.302 0,1.572 1.743,-0.09 3.594,-0.135 5.302,-0.135 1.601,0 3.381,0.045 4.946,0.135 0.285,-0.27 0.285,-1.303 0,-1.572 L 0.249,13.836 C -1.281,13.566 -1.495,13.117 -1.495,8.94 V 3.729 C -1.495,2.426 -1.459,2.381 0,2.381 h 7.401 c 1.495,0 1.495,0.045 1.495,1.348 V 8.94 c 0,4.177 -0.178,4.537 -1.815,4.851 l -0.961,0.18 c -0.284,0.269 -0.284,1.302 0,1.572 1.957,-0.09 3.701,-0.135 5.409,-0.135 1.743,0 3.38,0.045 5.017,0.135 0.285,-0.27 0.285,-1.303 0,-1.572 L 15.835,13.836 C 14.197,13.521 13.984,13.117 13.984,8.94 V -7.771 c 0,-4.178 0.213,-4.493 1.851,-4.852 l 0.854,-0.18 c 0.285,-0.269 0.285,-1.302 0,-1.572 -1.78,0.09 -3.523,0.135 -5.16,0.135 -1.779,0 -3.523,-0.045 -5.231,-0.135 -0.284,0.27 -0.284,1.303 0,1.572 l 0.783,0.135 c 1.637,0.27 1.815,0.719 1.815,4.897 v 6.468 c 0,1.258 0,1.303 -1.495,1.303 z"
       style="fill:#ffffff;fill-opacity:1;fill-rule:nonzero;stroke:none"
       transform="matrix(1.3333333,0,0,-1.3333333,405.11853,256.14533)" />
    <path
       id="path32"
       d="m 0,0 c 0,-4.223 0.214,-4.537 1.851,-4.897 l 0.996,-0.224 c 0.285,-0.27 0.25,-1.303 -0.035,-1.572 -1.922,0.089 -3.665,0.134 -5.338,0.134 -1.708,0 -3.487,-0.045 -5.408,-0.134 -0.286,0.269 -0.286,1.302 0,1.572 l 0.996,0.224 c 1.636,0.36 1.85,0.674 1.85,4.897 v 16.531 c 0,4.223 -0.214,4.537 -1.85,4.897 l -0.996,0.224 c -0.286,0.27 -0.286,1.303 0,1.573 1.921,-0.09 3.7,-0.135 5.408,-0.135 1.673,0 3.452,0.045 5.373,0.135 0.285,-0.27 0.285,-1.303 0,-1.573 L 1.851,21.428 C 0.214,21.068 0,20.754 0,16.531 Z"
       style="fill:#ffffff;fill-opacity:1;fill-rule:nonzero;stroke:none"
       transform="matrix(1.3333333,0,0,-1.3333333,441.37107,266.38747)" />
    <path
       id="path33"
       d="m 0,0 c 0,-2.111 0.143,-3.549 0.605,-4.268 0.463,-0.763 1.103,-1.123 3.701,-1.123 3.238,0 4.234,0.135 6.334,5.346 0.285,0.449 1.103,0.27 1.352,-0.269 -0.178,-2.336 -1.032,-6.065 -1.53,-7.278 -1.886,0.09 -5.302,0.135 -8.22,0.135 h -4.768 c -1.637,0 -3.416,-0.045 -5.622,-0.135 -0.321,0.27 -0.392,1.303 -0.107,1.573 l 1.353,0.224 c 1.6,0.27 1.814,0.629 1.814,4.807 v 16.711 c 0,4.177 -0.214,4.582 -1.814,4.851 l -1.033,0.18 c -0.356,0.269 -0.356,1.303 0.072,1.572 1.849,-0.09 3.629,-0.135 5.337,-0.135 1.708,0 3.487,0.045 5.266,0.135 0.285,-0.269 0.285,-1.303 0,-1.572 L 1.815,20.574 C 0.214,20.26 0,19.9 0,15.723 Z"
       style="fill:#ffffff;fill-opacity:1;fill-rule:nonzero;stroke:none"
       transform="matrix(1.3333333,0,0,-1.3333333,458.974,265.1896)" />
    <path
       id="path34"
       d="m 0,0 c 0,-4.223 0.214,-4.537 1.851,-4.897 l 0.996,-0.224 c 0.285,-0.27 0.25,-1.303 -0.035,-1.572 -1.922,0.089 -3.666,0.134 -5.338,0.134 -1.708,0 -3.487,-0.045 -5.409,-0.134 -0.285,0.269 -0.285,1.302 0,1.572 l 0.997,0.224 c 1.636,0.36 1.85,0.674 1.85,4.897 v 16.531 c 0,4.223 -0.214,4.537 -1.85,4.897 l -0.997,0.224 c -0.285,0.27 -0.285,1.303 0,1.573 1.922,-0.09 3.701,-0.135 5.409,-0.135 1.672,0 3.452,0.045 5.373,0.135 0.285,-0.27 0.285,-1.303 0,-1.573 L 1.851,21.428 C 0.214,21.068 0,20.754 0,16.531 Z"
       style="fill:#ffffff;fill-opacity:1;fill-rule:nonzero;stroke:none"
       transform="matrix(1.3333333,0,0,-1.3333333,486.73307,266.38747)" />
    <path
       id="path35"
       d="M 0,0 C 0,4.537 -0.071,5.076 -1.565,5.301 L -2.669,5.48 c -0.32,0.225 -0.32,1.213 0.071,1.528 2.349,0.224 5.124,0.404 8.22,0.404 3.025,0 5.018,-0.449 6.512,-1.168 2.171,-1.033 4.341,-3.414 4.341,-7.771 0,-7.368 -5.871,-8.446 -7.757,-8.446 -0.427,0 -0.747,0 -1.139,0.045 -0.284,0.225 -0.355,0.944 -0.106,1.213 2.953,1.168 3.558,3.819 3.558,7.143 0,3.324 -1.352,6.918 -4.554,6.918 -1.318,0 -1.389,-0.494 -1.389,-2.291 v -18.957 c 0,-4.178 0.214,-4.538 1.815,-4.852 l 1.139,-0.225 c 0.392,-0.224 0.392,-1.257 0,-1.527 -1.993,0.09 -3.736,0.135 -5.444,0.135 -1.708,0 -3.416,-0.045 -5.338,-0.135 -0.392,0.27 -0.463,1.303 -0.071,1.527 l 0.997,0.225 c 1.6,0.359 1.814,0.674 1.814,4.852 z"
       style="fill:#ffffff;fill-opacity:1;fill-rule:nonzero;stroke:none"
       transform="matrix(1.3333333,0,0,-1.3333333,497.55213,245.30413)" />
    <path
       id="path36"
       d="M 0,0 C 0,4.537 -0.071,5.076 -1.565,5.301 L -2.669,5.48 c -0.32,0.225 -0.32,1.213 0.071,1.528 2.349,0.224 5.124,0.404 8.22,0.404 3.024,0 5.018,-0.449 6.512,-1.168 2.171,-1.033 4.341,-3.414 4.341,-7.771 0,-7.368 -5.871,-8.446 -7.757,-8.446 -0.427,0 -0.747,0 -1.139,0.045 -0.284,0.225 -0.355,0.944 -0.106,1.213 2.953,1.168 3.558,3.819 3.558,7.143 0,3.324 -1.352,6.918 -4.554,6.918 -1.318,0 -1.389,-0.494 -1.389,-2.291 v -18.957 c 0,-4.178 0.214,-4.538 1.815,-4.852 l 1.139,-0.225 c 0.392,-0.224 0.392,-1.257 0,-1.527 -1.993,0.09 -3.736,0.135 -5.444,0.135 -1.708,0 -3.416,-0.045 -5.338,-0.135 -0.392,0.27 -0.463,1.303 -0.072,1.527 l 0.998,0.225 c 1.6,0.359 1.814,0.674 1.814,4.852 z"
       style="fill:#ffffff;fill-opacity:1;fill-rule:nonzero;stroke:none"
       transform="matrix(1.3333333,0,0,-1.3333333,526.0704,245.30413)" />
    <path
       id="path37"
       d="m 0,0 c -4.377,0 -6.725,-5.166 -6.725,-12.668 0,-5.48 1.53,-14.285 7.33,-14.285 4.662,0 6.476,5.75 6.476,13.027 C 7.081,-6.244 4.412,0 0,0 m 12.774,-13.342 c 0,-9.793 -5.195,-15.678 -12.845,-15.678 -7.153,0 -12.347,5.93 -12.347,15.319 0,8.894 5.266,15.767 12.703,15.767 7.402,0 12.489,-6.289 12.489,-15.408"
       style="fill:#ffffff;fill-opacity:1;fill-rule:nonzero;stroke:none"
       transform="matrix(1.3333333,0,0,-1.3333333,567.63547,237.39787)" />
    <path
       id="path38"
       d="M 0,0 C 0,4.537 -0.071,5.076 -1.565,5.301 L -2.669,5.48 c -0.32,0.225 -0.32,1.213 0.071,1.528 2.349,0.224 5.124,0.404 8.22,0.404 3.024,0 5.018,-0.449 6.512,-1.168 2.171,-1.033 4.341,-3.414 4.341,-7.771 0,-7.368 -5.872,-8.446 -7.757,-8.446 -0.427,0 -0.747,0 -1.139,0.045 -0.284,0.225 -0.355,0.944 -0.106,1.213 2.953,1.168 3.558,3.819 3.558,7.143 0,3.324 -1.352,6.918 -4.554,6.918 -1.318,0 -1.389,-0.494 -1.389,-2.291 v -18.957 c 0,-4.178 0.214,-4.538 1.815,-4.852 l 1.139,-0.225 c 0.392,-0.224 0.392,-1.257 0,-1.527 -1.993,0.09 -3.736,0.135 -5.444,0.135 -1.708,0 -3.416,-0.045 -5.338,-0.135 -0.392,0.27 -0.463,1.303 -0.071,1.527 l 0.996,0.225 C -0.214,-20.395 0,-20.08 0,-15.902 Z"
       style="fill:#ffffff;fill-opacity:1;fill-rule:nonzero;stroke:none"
       transform="matrix(1.3333333,0,0,-1.3333333,591.9792,245.30413)" />
    <path
       id="path39"
       d="m 0,0 c -4.377,0 -6.725,-5.166 -6.725,-12.668 0,-5.48 1.53,-14.285 7.33,-14.285 4.662,0 6.476,5.75 6.476,13.027 C 7.081,-6.244 4.412,0 0,0 m 12.774,-13.342 c 0,-9.793 -5.195,-15.678 -12.845,-15.678 -7.153,0 -12.347,5.93 -12.347,15.319 0,8.894 5.266,15.767 12.703,15.767 7.402,0 12.489,-6.289 12.489,-15.408"
       style="fill:#ffffff;fill-opacity:1;fill-rule:nonzero;stroke:none"
       transform="matrix(1.3333333,0,0,-1.3333333,633.54427,237.39787)" />
    <path
       id="path40"
       d="m 0,0 c 0,-2.111 0.143,-3.549 0.605,-4.268 0.463,-0.763 1.103,-1.123 3.701,-1.123 3.238,0 4.234,0.135 6.334,5.346 0.285,0.449 1.103,0.27 1.352,-0.269 -0.177,-2.336 -1.032,-6.065 -1.53,-7.278 -1.886,0.09 -5.302,0.135 -8.22,0.135 h -4.768 c -1.637,0 -3.416,-0.045 -5.622,-0.135 -0.321,0.27 -0.392,1.303 -0.107,1.573 l 1.353,0.224 c 1.6,0.27 1.814,0.629 1.814,4.807 v 16.711 c 0,4.177 -0.214,4.582 -1.814,4.851 l -1.033,0.18 c -0.356,0.269 -0.356,1.303 0.072,1.572 1.849,-0.09 3.629,-0.135 5.337,-0.135 1.708,0 3.487,0.045 5.266,0.135 0.285,-0.269 0.285,-1.303 0,-1.572 L 1.815,20.574 C 0.214,20.26 0,19.9 0,15.723 Z"
       style="fill:#ffffff;fill-opacity:1;fill-rule:nonzero;stroke:none"
       transform="matrix(1.3333333,0,0,-1.3333333,664.67187,265.1896)" />
    <path
       id="path41"
       d="m 0,0 c 0,-4.223 0.214,-4.537 1.851,-4.897 l 0.996,-0.224 c 0.285,-0.27 0.25,-1.303 -0.035,-1.572 -1.922,0.089 -3.666,0.134 -5.338,0.134 -1.708,0 -3.487,-0.045 -5.409,-0.134 -0.285,0.269 -0.285,1.302 0,1.572 l 0.997,0.224 c 1.636,0.36 1.85,0.674 1.85,4.897 v 16.531 c 0,4.223 -0.214,4.537 -1.85,4.897 l -0.997,0.224 c -0.285,0.27 -0.285,1.303 0,1.573 1.922,-0.09 3.701,-0.135 5.409,-0.135 1.672,0 3.452,0.045 5.373,0.135 0.285,-0.27 0.285,-1.303 0,-1.573 L 1.851,21.428 C 0.214,21.068 0,20.754 0,16.531 Z"
       style="fill:#ffffff;fill-opacity:1;fill-rule:nonzero;stroke:none"
       transform="matrix(1.3333333,0,0,-1.3333333,692.43107,266.38747)" />
    <path
       id="path42"
       d="m 0,0 c -3.273,0 -5.302,1.168 -6.049,1.707 -0.676,0.988 -1.138,4.223 -1.138,7.277 0.249,0.584 1.067,0.629 1.352,0.135 0.711,-2.92 3.096,-7.053 6.12,-7.053 2.633,0 3.843,2.291 3.843,4.538 0,3.638 -2.704,5.794 -4.839,7.142 -2.562,1.617 -5.373,4.313 -5.373,8.76 -0.036,5.076 3.096,8.58 8.255,8.58 1.175,0 2.633,-0.18 4.057,-0.719 C 6.69,30.187 7.011,30.098 7.437,30.008 7.722,29.02 8.078,26.594 8.078,23.584 7.9,23.045 7.011,23 6.69,23.449 6.085,25.74 4.555,29.02 1.993,29.02 c -2.348,0 -3.63,-1.932 -3.63,-4.178 0,-2.067 1.459,-3.953 3.239,-5.121 L 3.95,18.148 C 6.156,16.666 8.968,14.061 8.968,9.119 8.968,3.594 5.374,0 0,0"
       style="fill:#ffffff;fill-opacity:1;fill-rule:nonzero;stroke:none"
       transform="matrix(1.3333333,0,0,-1.3333333,708.51693,276.09067)" />
    <path
       id="path43"
       d="m 0,0 c 2.598,0 3.024,0.09 4.056,2.471 0.25,0.314 1.068,0.314 1.21,-0.27 -0.321,-2.785 -1.139,-5.885 -1.744,-6.963 -1.423,0.09 -2.704,0.135 -4.981,0.135 h -5.658 c -1.851,0 -3.38,-0.045 -3.986,-0.135 -0.32,0.09 -0.426,0.584 -0.355,0.989 1.351,1.572 3.38,3.953 5.516,6.918 2.455,3.414 4.661,7.187 4.661,11.994 0,3.099 -1.495,5.48 -3.879,5.48 -2.029,0 -3.451,-1.662 -4.59,-4.133 -0.427,-0.359 -1.103,-0.09 -1.175,0.629 1.459,4.537 4.733,7.008 8.185,7.008 4.163,0 6.725,-3.414 6.725,-7.637 0,-3.504 -1.103,-6.019 -5.373,-11.095 L -3.096,3.369 C -4.662,1.527 -4.982,0.898 -4.982,0.539 -4.982,0.27 -4.804,0 -4.306,0 Z"
       style="fill:#ffffff;fill-opacity:1;fill-rule:nonzero;stroke:none"
       transform="matrix(1.3333333,0,0,-1.3333333,502.11853,994.34187)" />
    <path
       id="path44"
       d="m 0,0 c 2.704,0 3.024,8.625 3.024,12.623 0,3.998 -0.32,12.623 -3.024,12.623 -2.705,0 -3.024,-8.625 -3.024,-12.623 C -3.024,8.625 -2.705,0 0,0 M 8.22,12.623 C 8.22,5.391 5.765,-2.066 0,-2.066 c -5.765,0 -8.22,7.457 -8.22,14.689 0,6.963 2.455,14.689 8.22,14.689 5.765,0 8.22,-7.726 8.22,-14.689"
       style="fill:#ffffff;fill-opacity:1;fill-rule:nonzero;stroke:none"
       transform="matrix(1.3333333,0,0,-1.3333333,526.46093,998.59453)" />
    <path
       id="path45"
       d="m 0,0 c 2.598,0 3.024,0.09 4.056,2.471 0.25,0.314 1.068,0.314 1.21,-0.27 -0.321,-2.785 -1.139,-5.885 -1.744,-6.963 -1.423,0.09 -2.704,0.135 -4.981,0.135 h -5.658 c -1.851,0 -3.38,-0.045 -3.986,-0.135 -0.32,0.09 -0.426,0.584 -0.355,0.989 1.352,1.572 3.38,3.953 5.516,6.918 2.455,3.414 4.661,7.187 4.661,11.994 0,3.099 -1.495,5.48 -3.879,5.48 -2.029,0 -3.451,-1.662 -4.59,-4.133 -0.427,-0.359 -1.104,-0.09 -1.175,0.629 1.459,4.537 4.733,7.008 8.185,7.008 4.163,0 6.725,-3.414 6.725,-7.637 0,-3.504 -1.103,-6.019 -5.373,-11.095 L -3.096,3.369 C -4.662,1.527 -4.982,0.898 -4.982,0.539 -4.982,0.27 -4.804,0 -4.306,0 Z"
       style="fill:#ffffff;fill-opacity:1;fill-rule:nonzero;stroke:none"
       transform="matrix(1.3333333,0,0,-1.3333333,558.58467,994.34187)" />
    <path
       id="path46"
       d="m 0,0 c 2.598,0 3.024,0.09 4.056,2.471 0.25,0.314 1.068,0.314 1.21,-0.27 -0.321,-2.785 -1.139,-5.885 -1.744,-6.963 -1.423,0.09 -2.704,0.135 -4.981,0.135 h -5.658 c -1.851,0 -3.38,-0.045 -3.986,-0.135 -0.32,0.09 -0.426,0.584 -0.355,0.989 1.352,1.572 3.38,3.953 5.516,6.918 2.455,3.414 4.661,7.187 4.661,11.994 0,3.099 -1.495,5.48 -3.879,5.48 -2.028,0 -3.451,-1.662 -4.59,-4.133 -0.427,-0.359 -1.104,-0.09 -1.175,0.629 1.459,4.537 4.733,7.008 8.185,7.008 4.163,0 6.725,-3.414 6.725,-7.637 0,-3.504 -1.103,-6.019 -5.373,-11.095 L -3.096,3.369 C -4.662,1.527 -4.982,0.898 -4.982,0.539 -4.982,0.27 -4.804,0 -4.306,0 Z"
       style="fill:#ffffff;fill-opacity:1;fill-rule:nonzero;stroke:none"
       transform="matrix(1.3333333,0,0,-1.3333333,586.8164,994.34187)" />
    <path
       id="path47"
       d="m 473.915,679.161 h 81.513 V 655.2 h -81.513 z"
       style="fill:#ffffff;fill-opacity:1;fill-rule:evenodd;stroke:none"
       transform="matrix(1.3333333,0,0,-1.3333333,-18.8976,1074.8971)" />
    <path
       id="path48"
       d="M 0,0 C 0.751,-12.019 1.408,-22.312 3.782,-20.409 3.193,-9.439 2.252,1.597 0,0"
       style="fill:#100f0d;fill-opacity:1;fill-rule:evenodd;stroke:none"
       transform="matrix(1.3333333,0,0,-1.3333333,715.8828,170.9552)" />
    <path
       id="path49"
       d="M 0,0 C 0.749,-12.019 1.408,-22.312 3.782,-20.409 3.192,-9.439 2.252,1.597 0,0"
       style="fill:#100f0d;fill-opacity:1;fill-rule:evenodd;stroke:none"
       transform="matrix(1.3333333,0,0,-1.3333333,705.79827,170.9552)" />
    <path
       id="path50"
       d="M 0,0 C 0.749,-12.019 1.408,-22.312 3.781,-20.409 3.193,-9.439 2.253,1.597 0,0"
       style="fill:#100f0d;fill-opacity:1;fill-rule:evenodd;stroke:none"
       transform="matrix(1.3333333,0,0,-1.3333333,695.7136,170.9552)" />
    <path
       id="path51"
       d="M 0,0 C 0.749,-12.019 1.408,-22.312 3.781,-20.409 3.191,-9.439 2.25,1.597 0,0"
       style="fill:#100f0d;fill-opacity:1;fill-rule:evenodd;stroke:none"
       transform="matrix(1.3333333,0,0,-1.3333333,685.6276,170.9552)" />
    <path
       id="path52"
       d="M 0,0 C 0.749,-12.019 1.408,-22.312 3.781,-20.409 3.19,-9.439 2.251,1.597 0,0"
       style="fill:#100f0d;fill-opacity:1;fill-rule:evenodd;stroke:none"
       transform="matrix(1.3333333,0,0,-1.3333333,675.54307,170.9552)" />
    <path
       id="path53"
       d="M 0,0 C 0.748,-12.019 1.408,-22.312 3.781,-20.409 3.191,-9.439 2.251,1.597 0,0"
       style="fill:#100f0d;fill-opacity:1;fill-rule:evenodd;stroke:none"
       transform="matrix(1.3333333,0,0,-1.3333333,665.4584,170.9552)" />
    <path
       id="path54"
       d="M 0,0 C 0.751,-12.019 1.409,-22.312 3.782,-20.409 3.193,-9.439 2.252,1.597 0,0"
       style="fill:#100f0d;fill-opacity:1;fill-rule:evenodd;stroke:none"
       transform="matrix(1.3333333,0,0,-1.3333333,655.37107,170.9552)" />
    <path
       id="path55"
       d="M 0,0 C 0.747,-12.019 1.407,-22.312 3.782,-20.409 3.191,-9.439 2.252,1.597 0,0"
       style="fill:#100f0d;fill-opacity:1;fill-rule:evenodd;stroke:none"
       transform="matrix(1.3333333,0,0,-1.3333333,645.28653,170.9552)" />
    <path
       id="path56"
       d="M 0,0 C 0.75,-12.019 1.408,-22.312 3.784,-20.409 3.193,-9.439 2.253,1.597 0,0"
       style="fill:#100f0d;fill-opacity:1;fill-rule:evenodd;stroke:none"
       transform="matrix(1.3333333,0,0,-1.3333333,635.1992,170.9552)" />
    <path
       id="path57"
       d="M 0,0 C 0.75,-12.019 1.408,-22.312 3.782,-20.409 3.193,-9.439 2.254,1.597 0,0"
       style="fill:#100f0d;fill-opacity:1;fill-rule:evenodd;stroke:none"
       transform="matrix(1.3333333,0,0,-1.3333333,625.11467,170.9552)" />
    <path
       id="path58"
       d="M 0,0 C 0.751,-12.019 1.411,-22.312 3.782,-20.409 3.193,-9.439 2.252,1.597 0,0"
       style="fill:#100f0d;fill-opacity:1;fill-rule:evenodd;stroke:none"
       transform="matrix(1.3333333,0,0,-1.3333333,615.02867,170.9552)" />
    <path
       id="path59"
       d="m 286.342,679.161 h 81.513 V 655.2 h -81.513 z"
       style="fill:#ffffff;fill-opacity:1;fill-rule:evenodd;stroke:none"
       transform="matrix(1.3333333,0,0,-1.3333333,-18.8976,1074.8971)" />
    <path
       id="path60"
       d="M 0,0 C 0.751,-12.019 1.408,-22.312 3.782,-20.409 3.193,-9.439 2.252,1.597 0,0"
       style="fill:#100f0d;fill-opacity:1;fill-rule:evenodd;stroke:none"
       transform="matrix(1.3333333,0,0,-1.3333333,465.7852,170.9552)" />
    <path
       id="path61"
       d="M 0,0 C 0.749,-12.019 1.408,-22.312 3.782,-20.409 3.192,-9.439 2.252,1.597 0,0"
       style="fill:#100f0d;fill-opacity:1;fill-rule:evenodd;stroke:none"
       transform="matrix(1.3333333,0,0,-1.3333333,455.70053,170.9552)" />
    <path
       id="path62"
       d="M 0,0 C 0.749,-12.019 1.408,-22.312 3.781,-20.409 3.193,-9.439 2.253,1.597 0,0"
       style="fill:#100f0d;fill-opacity:1;fill-rule:evenodd;stroke:none"
       transform="matrix(1.3333333,0,0,-1.3333333,445.61587,170.9552)" />
    <path
       id="path63"
       d="M 0,0 C 0.749,-12.019 1.408,-22.312 3.781,-20.409 3.191,-9.439 2.25,1.597 0,0"
       style="fill:#100f0d;fill-opacity:1;fill-rule:evenodd;stroke:none"
       transform="matrix(1.3333333,0,0,-1.3333333,435.53,170.9552)" />
    <path
       id="path64"
       d="M 0,0 C 0.749,-12.019 1.408,-22.312 3.781,-20.409 3.19,-9.439 2.251,1.597 0,0"
       style="fill:#100f0d;fill-opacity:1;fill-rule:evenodd;stroke:none"
       transform="matrix(1.3333333,0,0,-1.3333333,425.44533,170.9552)" />
    <path
       id="path65"
       d="M 0,0 C 0.748,-12.019 1.408,-22.312 3.781,-20.409 3.191,-9.439 2.251,1.597 0,0"
       style="fill:#100f0d;fill-opacity:1;fill-rule:evenodd;stroke:none"
       transform="matrix(1.3333333,0,0,-1.3333333,415.36067,170.9552)" />
    <path
       id="path66"
       d="M 0,0 C 0.751,-12.019 1.409,-22.312 3.782,-20.409 3.193,-9.439 2.252,1.597 0,0"
       style="fill:#100f0d;fill-opacity:1;fill-rule:evenodd;stroke:none"
       transform="matrix(1.3333333,0,0,-1.3333333,405.27347,170.9552)" />
    <path
       id="path67"
       d="M 0,0 C 0.747,-12.019 1.407,-22.312 3.782,-20.409 3.191,-9.439 2.252,1.597 0,0"
       style="fill:#100f0d;fill-opacity:1;fill-rule:evenodd;stroke:none"
       transform="matrix(1.3333333,0,0,-1.3333333,395.1888,170.9552)" />
    <path
       id="path68"
       d="M 0,0 C 0.75,-12.019 1.408,-22.312 3.784,-20.409 3.193,-9.439 2.253,1.597 0,0"
       style="fill:#100f0d;fill-opacity:1;fill-rule:evenodd;stroke:none"
       transform="matrix(1.3333333,0,0,-1.3333333,385.1016,170.9552)" />
    <path
       id="path69"
       d="M 0,0 C 0.75,-12.019 1.408,-22.312 3.782,-20.409 3.193,-9.439 2.254,1.597 0,0"
       style="fill:#100f0d;fill-opacity:1;fill-rule:evenodd;stroke:none"
       transform="matrix(1.3333333,0,0,-1.3333333,375.01693,170.9552)" />
    <path
       id="path70"
       d="M 0,0 C 0.751,-12.019 1.411,-22.312 3.782,-20.409 3.193,-9.439 2.252,1.597 0,0"
       style="fill:#100f0d;fill-opacity:1;fill-rule:evenodd;stroke:none"
       transform="matrix(1.3333333,0,0,-1.3333333,364.93107,170.9552)" />
    <path
       id="path71"
       d="m 0,0 -1.905,-3.633 c -0.061,-0.206 0.218,-2.329 0.263,-1.87 0.049,0.547 0.646,-1.224 1.493,-2.37 l 3.255,7.188 C 11.497,16.164 17.545,22.342 36.961,17.065 33.95,6.761 26.7,-1.502 20.496,-7.195 -0.689,-26.648 -3.941,4.405 -11.613,-54.434 0.395,-33.412 -0.777,-19.881 26.143,-24.962 22.02,-36.225 17.608,-45.521 10.107,-53.09 c -9.913,-9.998 -33.177,-4.936 -25.392,-49.245 10.878,27.589 6.883,33.752 33.827,35.099 -6.279,-36.212 -18.547,-33.665 -35.421,-47.25 l 1.736,-36.638 c 6.52,28.919 9.516,37.52 32.446,40.649 -12.112,-49.951 -20.095,-40.11 -32.52,-49.951 l 1.96,-32.152 c 2.299,-9.849 3.181,-11.488 -4.308,-4.826 l -1.848,34.544 c -7.623,3.271 -34.164,2.58 -35.585,47.953 23.25,1.221 25.608,-18.217 32.864,-35.431 0.277,5.785 1.171,25.88 0.008,30.809 -4.909,20.795 -29.308,4.523 -28.737,56.796 24.241,2.095 23.168,-23.253 28.818,-39.886 4.544,41.135 7.86,30.499 -9.967,47.414 -9.202,8.732 -10.386,26.93 -9.433,45.15 23.19,-0.822 19.328,-22.977 24.725,-43.457 l 6.142,39.726 c -9.344,8.153 -13.54,5.197 -16.558,22.533 -2.152,12.374 -1.284,24.29 3.368,33.433 C -7.09,34.057 -7.133,20.137 -7.606,-5.155 L 3.243,32.624 C -5.345,46.539 -7.606,35.08 -9.644,55.417 -10.945,68.315 -8.526,78.941 -4.98,91.033 11.782,86.777 10.646,64.856 7.295,42.333 l 14.956,34.548 c -0.006,0.009 -21.938,28.944 1.498,60.156 13.087,-8.188 12.181,-27.169 3.555,-49.079 16.52,18.678 20.956,71.603 72.152,77.815 C 83.976,131.652 49.077,109.03 45.594,104.831 38.981,96.872 38.668,91.948 33.2,84.246 49.336,94.272 49.63,108.717 73.372,92.765 70.179,87.44 61.404,79.351 54.444,75.877 33.079,65.229 32.613,85.722 21.008,60.525 17.179,52.225 17.141,50.973 14.87,42.288 26.17,56.868 32.389,62.783 53.223,58.152 47.657,41.189 38.345,34.148 24.121,31.392 4.412,27.58 7.114,31.105 0,0"
       style="fill:#ffffff;fill-opacity:1;fill-rule:evenodd;stroke:none"
       transform="matrix(1.3333333,0,0,-1.3333333,205.79173,252.90707)" />
    <path
       id="path72"
       d="m 0,0 -2.547,-1.995 c -43.42,16.964 -11.069,-31.913 -77.149,-3.201 1.506,3.54 3.237,15.229 22.317,19.016 12.009,2.389 19.099,-1.911 30.567,-4.012 l -27.773,17.897 c -15.436,-6.86 -9.969,-15.1 -30.775,-11.737 -11.211,1.818 -21.391,5.911 -27.407,14.997 13.01,19.235 28.539,13.14 48.829,5.084 -3.292,4.315 -10.251,14.279 -16.291,18.037 -16.581,10.319 -28.103,-25.942 -62.612,14.63 14.762,21.94 34.307,8.361 50.256,-3.301 l -21.244,27.511 c -0.36,0.069 -35.439,-18.045 -52.148,20.755 14.671,21.873 38.676,-4.399 47.394,-11.717 l -16.623,30.492 c -1.128,0.132 -42.932,-9.538 -48.754,32.923 26.068,4.653 30.885,-8.93 44.439,-19.944 l 6.15,1.996 c -4.079,32.472 5.635,52.397 19.669,48.133 4.059,-45.252 -5.985,-34.918 -14.161,-56.451 2.346,-12.98 8.218,-25.354 15.663,-32.221 -7.074,23.015 -7.773,40.27 9.583,54.989 7.44,-7.789 3.438,1.481 6.049,-13.784 9.098,-53.235 -32.195,-31.77 9.646,-76.361 -6.112,17.255 -13.013,42.21 6.491,56.078 14.875,-28.971 5.471,-36.523 0.869,-63.198 7.373,-12.726 11.828,-14.522 22.432,-23.651 -4.588,21.136 -20.694,8.72 -4.673,58.014 6.459,-3.433 10.107,-0.239 15.617,-27.776 3.099,-15.491 -2.461,-21.535 -3.425,-36.68 L -23.489,16.511 C -28.94,28.318 -53.56,46.603 -31.151,72.635 -5.536,55.198 -17.628,19.784 -13.624,12.582 -9.168,4.56 -6.524,9.155 0,0"
       style="fill:#ffffff;fill-opacity:1;fill-rule:evenodd;stroke:none"
       transform="matrix(1.3333333,0,0,-1.3333333,404.06253,829.424)" />
    <path
       id="path73"
       d="m 0,0 -6.149,-1.996 -10.699,30.373 c -2.526,0.647 -43.365,-3.169 -45.45,40.119 26.392,0.491 29.604,-10.852 40.965,-28.932 l -10.1,35.332 c -15.576,5.353 -18.743,0.296 -27.828,15.589 -5.25,8.834 -9.744,15.355 -10.578,29.124 22.25,0.7 30.181,-11.238 34.463,-30.752 l 9.004,-3.554 c 0.544,1.046 0.157,3.511 1.194,10.378 3.274,25.983 8.671,35.777 27.612,36.696 C -2.591,85.515 -10.229,97.912 -23.752,77.559 l 9.083,-35.226 c -1.58,26.111 4.05,45.85 24.091,48.438 C 8.541,79.293 7.573,64.214 3.523,53.563 -4.605,32.198 -2.417,50.975 -11.89,31.859 -10.262,17.589 -4.035,4.795 0,0"
       style="fill:#ffffff;fill-opacity:1;fill-rule:evenodd;stroke:none"
       transform="matrix(1.3333333,0,0,-1.3333333,226.2344,632.84973)" />
    <path
       id="path74"
       d="M 0,0 1.905,-3.633 C 1.966,-3.839 1.687,-5.962 1.642,-5.503 1.593,-4.956 0.996,-6.727 0.149,-7.873 l -3.256,7.188 c -8.39,16.849 -14.438,23.027 -33.854,17.749 3.011,-10.303 10.261,-18.566 16.465,-24.259 21.184,-19.453 24.437,11.6 32.109,-47.239 -12.009,21.022 -10.836,34.553 -37.756,29.472 4.122,-11.263 8.535,-20.56 16.036,-28.128 9.913,-9.998 33.177,-4.936 25.392,-49.245 -10.878,27.589 -6.883,33.752 -33.827,35.099 6.279,-36.212 18.547,-33.665 35.421,-47.25 l -1.736,-36.638 c -6.52,28.919 -9.516,37.52 -32.446,40.649 12.112,-49.951 20.095,-40.11 32.52,-49.951 0,0 -0.271,-17.925 -1.96,-32.152 -1.69,-14.226 2.87,-9.746 4.307,-4.826 l 1.849,34.544 c 7.623,3.271 34.164,2.58 35.585,47.953 -23.25,1.221 -25.608,-18.217 -32.864,-35.431 -0.278,5.785 -1.171,25.879 -0.008,30.809 4.909,20.795 29.308,4.523 28.737,56.796 -24.241,2.095 -23.168,-23.253 -28.818,-39.886 -4.544,41.135 -7.86,30.499 9.967,47.414 9.202,8.732 10.385,26.93 9.433,45.15 -23.19,-0.822 -19.328,-22.977 -24.725,-43.457 l -6.142,39.726 c 9.344,8.153 13.54,5.197 16.558,22.533 2.152,12.374 1.284,24.29 -3.368,33.433 C 7.09,34.057 7.133,20.137 7.605,-5.155 L -3.243,32.624 C 5.345,46.539 7.605,35.08 9.643,55.416 10.945,68.314 8.526,78.941 4.979,91.033 -11.782,86.777 -10.646,64.856 -7.295,42.332 l -14.956,34.549 c 0.006,0.009 21.938,28.944 -1.498,60.156 -13.087,-8.188 -12.181,-27.169 -3.555,-49.08 -16.52,18.679 -20.956,71.604 -72.152,77.816 15.48,-34.121 50.379,-56.743 53.862,-60.942 6.612,-7.959 6.926,-12.883 12.394,-20.585 -16.136,10.026 -16.43,24.471 -40.172,8.519 3.193,-5.325 11.968,-13.414 18.928,-16.888 21.365,-10.648 21.831,9.845 33.436,-15.352 3.829,-8.3 3.867,-9.552 6.138,-18.237 -11.3,14.58 -17.519,20.495 -38.353,15.864 5.566,-16.963 14.878,-24.004 29.102,-26.76 C -4.412,27.58 -7.114,31.105 0,0"
       style="fill:#ffffff;fill-opacity:1;fill-rule:evenodd;stroke:none"
       transform="matrix(1.3333333,0,0,-1.3333333,877.74747,250.9168)" />
    <path
       id="path75"
       d="M 0,0 2.547,-1.995 C 45.967,14.969 13.616,-33.908 79.696,-5.196 78.19,-1.656 76.459,10.033 57.379,13.82 45.37,16.209 38.28,11.909 26.812,9.808 l 27.773,17.897 c 15.437,-6.86 9.969,-15.1 30.775,-11.737 11.211,1.818 21.391,5.911 27.407,14.997 -13.01,19.235 -28.539,13.14 -48.829,5.084 3.293,4.315 10.252,14.279 16.291,18.037 16.581,10.319 28.103,-25.942 62.612,14.63 -14.762,21.94 -34.307,8.361 -50.256,-3.301 l 21.244,27.511 c 0.36,0.069 35.439,-18.045 52.148,20.755 -14.671,21.873 -38.676,-4.399 -47.394,-11.717 l 16.623,30.492 c 1.128,0.132 42.932,-9.538 48.754,32.923 -26.068,4.653 -30.885,-8.93 -44.439,-19.944 l -6.15,1.996 c 4.079,32.472 -5.635,52.397 -19.669,48.133 -4.059,-45.252 5.985,-34.918 14.161,-56.451 -2.346,-12.98 -8.218,-25.354 -15.663,-32.221 7.074,23.015 7.773,40.27 -9.583,54.989 -7.44,-7.789 -3.438,1.481 -6.049,-13.784 -9.098,-53.235 32.195,-31.77 -9.646,-76.361 6.112,17.255 13.013,42.21 -6.491,56.078 C 65.556,98.843 74.96,91.291 79.562,64.616 72.19,51.89 67.734,50.094 57.13,40.965 61.718,62.101 77.824,49.685 61.803,98.979 55.344,95.546 51.696,98.74 46.186,71.203 43.087,55.712 48.647,49.668 49.611,34.523 L 23.489,16.511 C 28.94,28.318 53.56,46.603 31.151,72.635 5.536,55.198 17.628,19.784 13.624,12.582 9.168,4.56 6.524,9.155 0,0"
       style="fill:#ffffff;fill-opacity:1;fill-rule:evenodd;stroke:none"
       transform="matrix(1.3333333,0,0,-1.3333333,678.40107,829.424)" />
    <path
       id="path76"
       d="m 0,0 6.149,-1.996 10.699,30.373 c 2.526,0.647 43.365,-3.169 45.45,40.119 C 35.906,68.987 32.694,57.644 21.333,39.564 l 10.1,35.332 c 15.576,5.353 18.743,0.296 27.828,15.589 5.25,8.834 9.744,15.355 10.578,29.124 -22.25,0.7 -30.181,-11.238 -34.463,-30.752 L 26.372,85.303 C 25.828,86.349 25.034,89 25.178,95.681 21.904,121.664 16.507,131.458 -2.434,132.377 2.591,85.515 10.23,97.912 23.752,77.559 L 14.669,42.333 c 1.58,26.111 -4.05,45.85 -24.091,48.438 0.881,-11.478 1.849,-26.557 5.9,-37.208 C 4.606,32.198 2.417,50.975 11.89,31.859 10.262,17.589 4.035,4.795 0,0"
       style="fill:#ffffff;fill-opacity:1;fill-rule:evenodd;stroke:none"
       transform="matrix(1.3333333,0,0,-1.3333333,856.2292,632.84973)" />
  </g>
</svg>
